<?xml version="1.0" encoding="iso-8859-1"?>
<!-- Generator: Adobe Illustrator 15.0.0, SVG Export Plug-In . SVG Version: 6.00 Build 0)  -->
<!DOCTYPE svg PUBLIC "-//W3C//DTD SVG 1.1//EN" "http://www.w3.org/Graphics/SVG/1.1/DTD/svg11.dtd">
<svg xmlns="http://www.w3.org/2000/svg" xmlns:xlink="http://www.w3.org/1999/xlink" version="1.1" id="Layer_1" x="0px" y="0px" width="512" height="512" viewBox="0 0 128 128" style="enable-background:new 0 0 128 128;" xml:space="preserve">
<g>
	<path style="fill:#88C5CC;" d="M64,0C28.654,0,0,28.654,0,64c0,35.346,28.654,64,64,64s64-28.654,64-64C128,28.654,99.346,0,64,0z"/>
	<rect x="46" y="64" style="fill:#E6E6E6;" width="60" height="40"/>
	<path style="fill:#B7E1E6;" d="M92.752,28.583c-18.518,6.171-25.033-12.69-47.552,0C60.86,26.755,70.69,43.556,92.752,28.583z"/>
	<g>
		<g>
			<path style="fill:#263740;" d="M60,89c-0.55,0-1-0.45-1-1V70c0-0.55,0.45-1,1-1h12c0.55,0,1,0.45,1,1v18c0,0.55-0.45,1-1,1H60z"/>
			<rect x="61" y="71" style="fill:#FFEAB3;" width="10" height="16"/>
		</g>
		<g>
			<path style="fill:#263740;" d="M80,89c-0.55,0-1-0.45-1-1V70c0-0.55,0.45-1,1-1h12c0.55,0,1,0.45,1,1v18c0,0.55-0.45,1-1,1H80z"/>
			<rect x="81" y="71" style="fill:#FFEAB3;" width="10" height="16"/>
		</g>
	</g>
	<path style="fill:#263740;" d="M109,62c0,1.1-0.9,2-2,2H45c-1.1,0-2-0.9-2-2v-2c0-1.1,0.9-2,2-2h62c1.1,0,2,0.9,2,2V62z"/>
	<path style="fill:#1E2C33;" d="M107,58h-4c1.1,0,2,0.9,2,2v2c0,1.1-0.9,2-2,2h4c1.1,0,2-0.9,2-2v-2C109,58.9,108.1,58,107,58z"/>
	<path style="fill:#CC584C;" d="M20,104V92c0-1.1,0.9-2,2-2h18c1.1,0,2,0.9,2,2v12H20z"/>
	<path style="fill:#BF5347;" d="M40,90h-4c1.1,0,2,0.9,2,2v12h4V92C42,90.9,41.1,90,40,90z"/>
	<path style="fill:#E6E6E6;" d="M24,90V32c0-1.1,0.9-2,2-2h10c1.1,0,2,0.9,2,2v58H24z"/>
	<path style="fill:#CCCCCC;" d="M36,30h-2c1.1,0,2,0.9,2,2v58h2V32C38,30.9,37.1,30,36,30z"/>
	<path style="fill:#263740;" d="M14.057,104C25.786,118.626,43.794,128,64,128s38.214-9.374,49.943-24H14.057z"/>
	<path style="fill:#1E2C33;" d="M113.943,104H14.056c0.545,0.68,1.104,1.344,1.677,2h96.534   C112.839,105.344,113.398,104.68,113.943,104z"/>
	<rect x="24" y="37" style="fill:#E16B5A;" width="2" height="2"/>
	<rect x="26" y="39" style="fill:#E16B5A;" width="2" height="2"/>
	<rect x="28" y="37" style="fill:#E16B5A;" width="2" height="2"/>
	<rect x="30" y="39" style="fill:#E16B5A;" width="2" height="2"/>
	<rect x="32" y="37" style="fill:#E16B5A;" width="2" height="2"/>
	<rect x="34" y="39" style="fill:#E16B5A;" width="2" height="2"/>
	<rect x="36" y="37" style="fill:#E16B5A;" width="2" height="2"/>
	<rect x="38" y="80" style="fill:#CCCCCC;" width="2" height="9"/>
	<rect x="44" y="80" style="fill:#CCCCCC;" width="2" height="9"/>
	<rect x="40" y="82" style="fill:#E6E6E6;" width="4" height="5"/>
	<rect x="46" y="64" style="fill:#CCCCCC;" width="60" height="1"/>
</g>
</svg>
